<svg width="24" height="24" viewBox="0 0 24 24" fill="none" xmlns="http://www.w3.org/2000/svg">
<path d="M17.3333 10.8H6.66667C5.93333 10.8 5.33333 11.34 5.33333 12C5.33333 12.66 5.93333 13.2 6.66667 13.2H17.3333C18.0667 13.2 18.6667 12.66 18.6667 12C18.6667 11.34 18.0667 10.8 17.3333 10.8ZM21.3333 2.4H20V1.2C20 0.54 19.4 0 18.6667 0C17.9333 0 17.3333 0.54 17.3333 1.2V2.4H6.66667V1.2C6.66667 0.54 6.06667 0 5.33333 0C4.6 0 4 0.54 4 1.2V2.4H2.66667C1.95942 2.4 1.28115 2.65286 0.781048 3.10294C0.280951 3.55303 0 4.16348 0 4.8V21.6C0 22.2365 0.280951 22.847 0.781048 23.2971C1.28115 23.7471 1.95942 24 2.66667 24H21.3333C22.8 24 24 22.92 24 21.6V4.8C24 3.48 22.8 2.4 21.3333 2.4ZM20 21.6H4C3.26667 21.6 2.66667 21.06 2.66667 20.4V8.4H21.3333V20.4C21.3333 21.06 20.7333 21.6 20 21.6ZM13.3333 15.6H6.66667C5.93333 15.6 5.33333 16.14 5.33333 16.8C5.33333 17.46 5.93333 18 6.66667 18H13.3333C14.0667 18 14.6667 17.46 14.6667 16.8C14.6667 16.14 14.0667 15.6 13.3333 15.6Z" fill="#666666"/>
</svg>
